<svg xmlns="http://www.w3.org/2000/svg" width="343.663" height="287.37" viewBox="0 0 343.663 287.37"><g transform="translate(-295 -342.535)"><g transform="translate(337.388 342.535)"><path d="M216.007,314.318a27.053,27.053,0,0,1-14.348-4.106l-71.793-44.856a70.352,70.352,0,0,1-32.97-53.447L83.6,51.095l92.482-19.9a189.917,189.917,0,0,1,79.852,0l92.481,19.9-13.3,160.814a70.348,70.348,0,0,1-32.97,53.447l-71.79,44.855A27.06,27.06,0,0,1,216.007,314.318Z" transform="translate(-83.599 -26.948)" fill="#111"/><path d="M304.447,265.275l-73.591,45.572a16.1,16.1,0,0,1-16.837,0l-73.591-45.572c-16.118-9.981-26.448-26.492-27.967-44.7L100.083,72.186a4.659,4.659,0,0,1,3.786-4.874l80.119-17.089a184.536,184.536,0,0,1,76.9,0l80.118,17.089a4.66,4.66,0,0,1,3.787,4.874L332.414,220.575C330.895,238.784,320.565,255.294,304.447,265.275Z" transform="translate(-90.275 -34.742)" fill="#5f5f5f"/><path d="M424.439,67.312,344.321,50.223a184.367,184.367,0,0,0-38.45-4.05v267.05a15.994,15.994,0,0,0,8.418-2.376l73.591-45.572c16.118-9.981,26.448-26.492,27.967-44.7L428.226,72.186A4.66,4.66,0,0,0,424.439,67.312Z" transform="translate(-173.709 -34.742)" fill="#878787"/><path d="M226.339,311.511a10.1,10.1,0,0,1-5.32-1.5l-73.591-45.572c-14.543-9.005-24.043-24.191-25.413-40.619L109.691,76.087l79.442-16.944a178.549,178.549,0,0,1,74.413,0l79.441,16.944L330.663,223.819c-1.37,16.428-10.87,31.613-25.412,40.619l-73.591,45.572A10.1,10.1,0,0,1,226.339,311.511Z" transform="translate(-94.177 -38.411)" fill="#111"/><g transform="translate(30.486 29.967)"><line x1="3.752" transform="translate(99.8 228.057)" fill="none"/><path d="M147.713,101.837v95.687l3.533,42.346a40.23,40.23,0,0,0,17.379,29.463V97.376Z" transform="translate(-140.077 -85.467)" fill="#111"/><path d="M182.883,94.335V266.291c.585.406,1.181.8,1.79,1.177l19.122,11.841V89.874Z" transform="translate(-154.336 -82.425)" fill="#eb3c16"/><path d="M236.1,83l-18.049,3.85V276.289l20.912,12.949V82.423C238.008,82.609,237.053,82.8,236.1,83Z" transform="translate(-168.593 -79.405)" fill="#111"/><path d="M253.222,80.592V287.407l20.911,12.95V77.906A164.114,164.114,0,0,0,253.222,80.592Z" transform="translate(-182.851 -77.574)" fill="#fff"/><path d="M309.3,300.053V77.687q-5.253-.337-10.519-.34-5.2,0-10.393.332V300.13l8.518,5.274h3.752Z" transform="translate(-197.109 -77.347)" fill="#111"/><path d="M344.473,287.334V80.621a164.149,164.149,0,0,0-20.912-2.7V300.284Z" transform="translate(-211.367 -77.578)" fill="#fff"/><path d="M379.642,276.227V86.9L361.468,83.02q-1.366-.291-2.737-.556V289.177Z" transform="translate(-225.625 -79.421)" fill="#111"/><path d="M412.9,267.486q.978-.606,1.916-1.262V94.38L393.9,89.919v189.33Z" transform="translate(-239.882 -82.444)" fill="#eb3c16"/><path d="M446.323,239.888l3.658-43.849V101.882L429.07,97.421V269.265A40.22,40.22,0,0,0,446.323,239.888Z" transform="translate(-254.141 -85.485)" fill="#111"/><path d="M471.871,107.6a1.2,1.2,0,0,0-.973-1.253l-6.658-1.42V199.08Z" transform="translate(-268.398 -88.526)" fill="#fff"/><path d="M137.347,105.979a3.049,3.049,0,0,0-2.466,3.174l7.626,91.413V104.878Z" transform="translate(-134.871 -88.508)" fill="#fff"/></g></g><g transform="translate(295 396.233)"><path d="M73.339,163.614l282.634-46.355L293.121,238.3,12.311,284.357Z" transform="translate(-12.311 -117.259)" fill="#5f5f5f"/><path d="M305.871,145V255.729L412.131,238.3l62.852-121.043Z" transform="translate(-131.321 -117.259)" fill="#878787"/><path d="M295.31,238.391l-269.478,44.2L82.144,171.177,353.3,126.7Z" transform="translate(-17.792 -121.088)" fill="#fff"/><path d="M86.546,174.959,351.97,131.426,296.4,238.436,32.593,281.7Z" transform="translate(-20.533 -123.002)" fill="#111"/></g><g transform="translate(339.225 418.219)"><path d="M126.058,208.693l24.523-4.369-30.3,67.872,31.338-5.584-9.073,20.327-55.861,9.954Z" transform="translate(-86.689 -174.541)" fill="#5f5f5f"/><path d="M133.454,216.007l14.967-2.666-30.3,67.872,31.338-5.584-5.047,11.307-46.3,8.251Z" transform="translate(-91.319 -178.197)" fill="#fff"/><path d="M370.154,247.844c-8.518,0-14.682-2.431-18.32-7.226-5.047-6.652-4.49-17,1.655-30.773,5.977-13.391,15.367-25.244,27.908-35.229s26.319-16.376,40.928-18.979a82.007,82.007,0,0,1,14.177-1.4,43.184,43.184,0,0,1,8.823.833l2.585.544-10.117,22.666-2.3-1.2a22.288,22.288,0,0,0-10.256-2.049,56.414,56.414,0,0,0-9.766.967c-7.424,1.322-14.65,4.832-21.478,10.432a55.674,55.674,0,0,0-15.707,20.51c-3.446,7.722-4.2,13.258-2.236,16.455,1.372,2.234,3.911,3.32,7.763,3.32a28.565,28.565,0,0,0,4.942-.486,37.842,37.842,0,0,0,10.112-3.15L404,211.568l-16.938,3.018,8.969-20.1,41.461-7.388-20.7,46.379-.755.448a103.453,103.453,0,0,1-34.817,12.827A63.858,63.858,0,0,1,370.154,247.844Z" transform="translate(-192.796 -154.235)" fill="#5f5f5f"/><path d="M373.44,246.519c-7.255,0-12.409-1.946-15.322-5.784-4.138-5.453-3.459-14.439,2.017-26.708,5.664-12.686,14.583-23.934,26.51-33.431s24.992-15.558,38.841-18.025a77.718,77.718,0,0,1,13.426-1.335,42.311,42.311,0,0,1,6.026.4L438.8,175.382a28.365,28.365,0,0,0-10.284-1.678A60.763,60.763,0,0,0,418,174.738c-8.207,1.463-16.154,5.308-23.619,11.429a60.437,60.437,0,0,0-17.051,22.264c-4.106,9.2-4.783,15.816-2.072,20.23,2.059,3.352,5.746,5.051,10.96,5.051a32.869,32.869,0,0,0,5.693-.553,41.123,41.123,0,0,0,12.3-4.054l.62-.334,8.805-19.726L396.7,212.062l4.944-11.076,31.9-5.684-17.088,38.282A98.952,98.952,0,0,1,383.755,245.5,59.62,59.62,0,0,1,373.44,246.519Z" transform="translate(-195.646 -157.073)" fill="#fff"/><path d="M293.245,185.7c-2.16-3.54-6.684-5.335-13.446-5.335a63.546,63.546,0,0,0-10.914,1.112l-31.618,5.634-39.369,88.2,24.523-4.37,14.192-31.794,3.733-.665a5.337,5.337,0,0,1,.922-.09,2.224,2.224,0,0,1,.791.121,2.186,2.186,0,0,1,1.012.83,7.748,7.748,0,0,1,1,2.189,32.486,32.486,0,0,1,.839,3.615l4.012,21.072,26.8-4.775-5.636-24.306a33.072,33.072,0,0,0-1.07-3.66,19.226,19.226,0,0,0-1.673-3.559,12.052,12.052,0,0,0-1.8-2.3c1.832-.911,3.624-1.908,5.36-2.984a61.883,61.883,0,0,0,8.652-6.453,56.037,56.037,0,0,0,7.151-7.7,44.115,44.115,0,0,0,5.261-8.8C295.054,194.752,295.486,189.375,293.245,185.7ZM268.59,207.15a25.074,25.074,0,0,1-7.68,9.417A25.546,25.546,0,0,1,249.5,221.8l-8.262,1.472,10.314-23.107,8.616-1.535Q273.449,196.263,268.59,207.15Z" transform="translate(-131.773 -164.829)" fill="#5f5f5f"/><path d="M293.276,191.97c-1.455-2.385-4.9-3.594-10.244-3.594a59.337,59.337,0,0,0-10.162,1.045l-29.166,5.2L208.36,273.8l14.967-2.667,14.192-31.793,6.185-1.1a9.591,9.591,0,0,1,1.671-.158,6.139,6.139,0,0,1,2.211.381,5.757,5.757,0,0,1,2.673,2.123,11.36,11.36,0,0,1,1.5,3.229,36.176,36.176,0,0,1,.935,4.005l3.33,17.489,18.22-3.246L269.662,242.3a29.1,29.1,0,0,0-.947-3.241,18.038,18.038,0,0,0-1.352-2.882,16.175,16.175,0,0,0-1.642-2.54,8.681,8.681,0,0,0-2.089-1.844l-1.3-.712.312-.7,1.345-.608a57.952,57.952,0,0,0,8.642-4.764,57.046,57.046,0,0,0,7.974-5.946,51.217,51.217,0,0,0,6.53-7.027,39.36,39.36,0,0,0,4.695-7.856C294.327,198.6,294.813,194.488,293.276,191.97Zm-18.35,18.746a27.226,27.226,0,0,1-8.29,10.2,27.644,27.644,0,0,1-12.29,5.631l-11.307,2.014,12.04-26.972,9.667-1.723a26.059,26.059,0,0,1,4.485-.451c3.159,0,5.313.9,6.4,2.688C276.852,204.1,276.621,206.919,274.926,210.716Z" transform="translate(-136.015 -168.076)" fill="#fff"/></g></g></svg>